<svg width="120" height="120" viewBox="0 0 120 120" fill="none" xmlns="http://www.w3.org/2000/svg"><defs/><g clip-path="url(#clip0)"><path d="M60.484 16.855l.062 3.485c-1.382.206-2.887.721-4.145 1.092-1.98-.742-3.754-1.463-5.569-1.979a36.207 36.207 0 019.652-2.598z" fill="#FFE539"/><path d="M55.452 57.057l.392-.206-.186.103c-.02-.02-.02-.041-.041-.041-.02-.021.433-.227 1.072-.536l3.96-2.206c-2.764-1.237-9.116-3.753-9.116-3.753l.103-.02-.226.041 7.63-2 1.753-.453-8.58-3.567c4.352-.165 8.704-1.03 11.921-1.835l-.31-.041-9.857-1.505 12.477.928c1.732-.495 2.805-.866 2.805-.866-2.372-.722-4.95-2.165-4.537-5.402.639-4.968 5.403-4.535 5.403-4.535.268-.02.516-.02.763 0-2.495-1.773-5.775-2.124-7.342-2.186 0 0 6.662-1.834 10.786 1.67 2.166 1.856 3.671 3.732 5.795 4.742 1.135.33 2.393-.062 2.929-.722.454-.556.495-1.401.289-2.432-.62-3.175-8.105-8.515-14.643-9.442-2.062-.29-4.27-.29-7.198.474-2.928.742-4.186 1.649-4.97 1.958 0 0-7.115-2.907-9.631-3.752-.103.062-.186.103-.289.165.31 3.113.784 9.525 1.01 10.927 0 0-.68 1.237-.721 1.484-2.454 8.247-.02 14.638 1.526 17.565 3.486 6.783 10.436 12.246 16.664 15.524 5.98 3.134 13.323 6.536 19.51 9.793 5.032-1.752 10.084-6.267 10.084-6.267l-3.382-1.712c7.528-4.576 8.394-12.06 8.394-12.06l-3.073-.083c3.258-4.329 3.898-9.174 3.939-12.08-3.3-12.288-12.395-22.905-25.016-26.658a23.257 23.257 0 00-1.609-.433A35.483 35.483 0 0070.713 17c-1.67-.268-3.362-.391-5.053-.433 2.207 1.155 4.414 2.619 5.466 3.835 4.557 1.196 8.95 3.855 11.714 6.453 1.443 1.36 3.196 3.092 3.464 5.958.207 2-.68 3.402-1.753 4.123 5.053.289 7.012 1.402 7.445 1.69 2-.061 4.208.125 5.156 1.155 1.34 1.464.578 4.515-.845 6.268.103.639.123 1.34-.02 2.061-.681 3.65-3.383 5.67-6.188 4.763l-5.135 4.577-.763-6.103c-1.65 2.557-5.837 9.628-5.507 18.266l6.084-1.752-2.103 5.814s-9.405-4.515-9.26-4.454c-.124-.061-.268-.103-.392-.165-7.569-3.071-14.58-8.328-17.365-12.08l-.206.082zM82.2 32.42c.392.887.248 1.69-.536 1.897-1.072.268-2.021-.412-2.846-.948-1.96-1.3-5.836-6.391-9.528-6.618 0 0 10.167-.35 12.91 5.67zm-32.997-1.422l.784-3.505-1.877-3.051 5.444 2.536s-3.609 2.061-4.351 4.02z" fill="#FFE539"/><path d="M72.095 92.826s10.93 3.278 24.212 2.391c.227-.33.433-.68.66-1.03-11.013-.042-20.582-3.093-20.582-3.093 1.753.31 4 .289 6.372.103-4.227-.454-8.991-1.65-13.9-4.103 0 0-1.711-.66-1.505-2.247.185-1.422 1.567-2.103 2.516-1.69 0 0 10.91 5.257 25.016 5.999 1.32-.31 2.124-.515 2.124-.515-12.91-2.866-19.468-6.969-19.468-6.969 3.609 1.34 7.878 1.835 11.343 2.041-1.258-.288-2.723-.639-4.455-1.113-10.085-2.7-7.96-6.37-7.96-6.37s-5.837-3.237-11.983-6.412c-10.229-5.32-18.128-13.999-20.231-21.214-2.351-9.01.536-15.669.618-15.895 0 0-.536-5.278-.907-9.195-1.361 2.102-6.27 9.957-7.053 14.617l-2.516-1.629s-2.64 8.659.907 15.874l-3.898.186s.722 11.504 9.116 17.132l-4.496.784s4.269 7.133 14.766 10.761c0 0-3.238 1.794-5.589 1.794 0 0 3.61 5.958 20.912 6.845 0 0-2.516 2.7-2.165 5.05.289 1.897 2.021 4.041 3.424 5.278 8.723 1.567 17.282 1.299 23.345-.845 1.34-.474 2.516-.99 3.527-1.526-5.569 1.32-13.282 1.938-22.026-.907 0 0-2.33-.824-1.96-2.597.145-.598.578-1.547 1.836-1.505z" fill="#FFE539"/><path d="M85.335 77.364c.022 0 .043.021.043.021s-.022-.02-.043-.02zM86.16 77.797s.022 0 .022.022c-.022 0-.022-.022-.022-.022zM75.065 45.656c-.02.165-.062.33-.083.495l1.362-.763-1.28.268zM63.33 20.03c.64-.062 1.28-.103 1.94-.124.474-.02.948 0 1.422.02-1.031-1.092-2.516-1.648-3.279-2.246-.082.618.041 1.299-.082 2.35zM50.833 19.432c1.814.536 3.588 1.237 5.568 1.979 1.258-.371 2.763-.866 4.145-1.093l-.062-3.484a37.82 37.82 0 00-9.651 2.598zM93.317 50.913c1.877-1.629 1.877-4.391 1.877-4.391-.743.37-1.506.618-1.506.618-.495 3.752-3.506 4.391-3.506 4.391s1.217 1.052 3.135-.618z" fill="#FFE539"/><path d="M76.344 45.388h-.042v.02l.042-.02zM55.617 56.892c.021.02.021.04.042.04l1.03-.577c-.639.31-1.092.537-1.072.537z" fill="#FFE539"/><path d="M91.543 46.213c-1.918-1.588-3.527-4.866-3.362-7.216-.66-.103-5.094-.804-8.352-.103-.846.185-1.588.639-2.186 1.154-.062.062-.145.124-.207.186l-.02.02c-.495.495-.908 1.114-1.238 1.774a8 8 0 00-.268.618l1.609.124c.392-.516.907-1.072 1.3-1.444 1.051-.968 4.619-1.401 7.3-.412 0 0 0 5.01 2.578 7.71 0 0-6.95-3.34-10.724-2.576-.186.04-.372.144-.516.144l-2.62 1.299a26.57 26.57 0 00-.082 2.103c3.65-4.845 12.725.206 13.344.66.123.082.288.185.495.288 1.959-.495 3.217-1.505 3.485-3.917a3.38 3.38 0 01-.536-.412zM66.692 19.927c-1.01-1.093-2.516-1.65-3.28-2.247-.082.618.063 1.299-.06 2.35l3.34-.103zM93.379 50.975c-1.918 1.65-3.135.619-3.135.619s3.011-.619 3.506-4.371c0 0 .743-.247 1.506-.618.02 0 .02 2.742-1.877 4.37z" fill="#FFE539"/><ellipse cx="71.5" cy="38" rx="2.5" ry="2" fill="white"/><path d="M69.291 26.75s10.147-.35 12.91 5.67c.392.887.248 1.69-.536 1.897-1.072.268-2.021-.412-2.846-.948-1.939-1.3-5.836-6.391-9.528-6.618zM78.819 41.347c-.413.392-.887.887-1.3 1.443l5.981.454-5.94 2.927c.207 0 .558-.164 1.073-.185 3.63-.186 10.064 2.68 10.064 2.68-2.578-2.7-2.578-7.71-2.578-7.71-2.68-1.01-6.228-.578-7.3.391zM73.415 43.986l-9.3-1.422c-3.218.803-7.57 1.67-11.921 1.834l8.58 3.567 12.476-3.257c.042-.248.103-.475.165-.722zM72.88 47.326c.04-.412.082-.845.144-1.258l-21.428 4.33-.103.02s6.372 2.536 9.115 3.753l12.271-6.845zM73.024 69.035c.124.062.062-.103.186-.041l-.33-15.607s-.227-2.144-.083-4.865L55.66 56.974c2.784 3.732 9.776 8.968 17.365 12.06zM72.859 41.574c-2.29-.082-4.105-1.835-4.022-3.896.082-2.062 2-3.67 4.31-3.588.186 0 .371.021.578.062-.454-.495-.846-.927-1.093-1.278a8.186 8.186 0 00-1.774-1.711 4.716 4.716 0 00-.763 0s-4.743-.433-5.403 4.536c-.413 3.216 2.165 4.68 4.537 5.401 0 0-1.052.371-2.805.866l7.404.556c.124-.37.268-.742.433-1.113a6.218 6.218 0 01-1.402.165zM99.649 56.913s-.867 7.484-8.394 12.06l3.382 1.712s-5.053 4.514-10.085 6.267c2.166 1.154 4.207 2.288 5.981 3.38 1.052-.741 3.176-2.432 5.362-5.194l-.062-.042c2.269-3.257 3.362-5.71 4.496-9.566 2.042-6.886 1.98-14.08.206-20.802-.041 2.907-.68 7.752-3.939 12.082l3.053.103z" fill="#C7911B"/><path d="M63.97 94.888c-.35-2.35 2.166-5.051 2.166-5.051-17.324-.907-20.912-6.845-20.912-6.845 2.35 0 5.588-1.793 5.588-1.793-10.497-3.629-14.766-10.762-14.766-10.762l4.496-.783c-8.414-5.629-9.116-17.132-9.116-17.132l3.898-.186c-3.547-7.216-.907-15.875-.907-15.875l2.516 1.63c.784-4.66 5.692-12.515 7.053-14.618v-.082c-3.485 2.494-6.579 5.484-9.095 8.844-2.846 3.814-4.97 8.02-6.31 12.535-2.063 6.968-2.104 14.08-.475 20.802.66-1.98 2.021-3.98 4.475-5.855 0 0-5.589 7.916.475 17.688.247.392.392.701.495.949 5.816 9.257 15.2 16.658 26.872 20.121 2.31.68 4.66 1.237 7.012 1.65-1.464-1.176-3.176-3.32-3.465-5.237z" fill="#C7911B"/><path d="M72.096 92.827c-1.28-.041-1.692.907-1.815 1.463-.372 1.773 1.959 2.598 1.959 2.598 8.744 2.845 16.457 2.247 22.026.907a29.097 29.097 0 01-3.527 1.526c-7.672 2.721-19.386 2.433-30.358-.804C48.71 95.053 39.325 87.652 33.51 78.395a5.333 5.333 0 00-.495-.948c-6.043-9.772-.474-17.689-.474-17.689-2.454 1.856-3.836 3.855-4.475 5.855-1.63-6.72-1.588-13.854.474-20.802 1.34-4.515 3.465-8.72 6.31-12.535 2.517-3.36 5.61-6.35 9.096-8.844.37 3.917.928 9.277.928 9.277-.083.227-2.97 6.907-.62 15.896C46.359 55.82 54.257 64.5 64.487 69.819a727.693 727.693 0 0111.982 6.412s-2.124 3.649 7.96 6.37c10.085 2.7 11.529 1.897 11.529 1.897-4.579-5.072-20.025-11.628-30.915-17.36-6.228-3.277-13.178-8.74-16.663-15.523-1.547-2.928-3.98-9.319-1.526-17.566.04-.226.721-1.484.721-1.484-.227-1.381-.7-7.793-1.01-10.926.103-.062.185-.104.288-.165 2.517.845 9.632 3.752 9.632 3.752.783-.31 2.062-1.196 4.97-1.959 2.928-.742 5.114-.763 7.197-.474 6.517.928 14.024 6.267 14.643 9.442.206 1.01.144 1.876-.289 2.433-.536.64-1.794 1.051-2.928.722-2.145-1.01-3.63-2.887-5.795-4.742-4.125-3.505-10.786-1.67-10.786-1.67 1.98.082 6.66.598 9.115 3.896.248.35.64.784 1.093 1.279-.185-.021-.371-.062-.577-.062-2.29-.083-4.228 1.525-4.31 3.587-.083 2.062 1.732 3.814 4.021 3.897.495.02.97-.042 1.402-.165-.165.35-.288.721-.433 1.113l-19.88-1.485 19.468 2.97c-.062.247-.103.473-.165.72L51.369 50.44l21.634-4.371a29.46 29.46 0 00-.144 1.258l-17.427 9.73 17.344-8.555c-.144 2.742.083 4.865.083 4.865l.247 15.648c-.124-.062 9.57 4.638 9.57 4.638l2.103-5.813-6.084 1.752c-.33-8.659 3.857-15.71 5.507-18.266l.763 6.102 5.135-4.576c2.805.927 5.486-1.114 6.187-4.763a5.79 5.79 0 00.02-2.061c1.403-1.753 2.186-4.804.846-6.268-.949-1.01-3.155-1.216-5.156-1.154-.433-.289-2.372-1.402-7.445-1.69 1.093-.722 1.96-2.124 1.753-4.124-.289-2.866-2.021-4.598-3.465-5.958-2.743-2.598-7.135-5.278-11.714-6.453-1.052-1.216-3.258-2.68-5.465-3.835 1.691.02 3.382.165 5.053.433 1.072.165 2.145.392 3.217.64l1.609.432c19.51 5.773 30.563 27.977 24.789 47.46-1.134 3.834-2.227 6.287-4.496 9.565l.289.165c-.062.186 4.186-3.65 6.166-10.411 6.332-21.524-5.341-43.769-26.893-50.16a40.832 40.832 0 00-28.336 1.938 40.75 40.75 0 00-16.56 13.71l-.021.02c-3.135 4.206-5.486 8.845-6.95 13.834-7.363 24.76 8.393 51.355 35.08 59.251 12.085 3.567 25.965 3.32 34.07-1.443 2.99-1.752 4.434-4 4.413-4l.598-1.154c3.568-1.195 5.651-2.474 5.651-2.474-16.23 2.969-31.245-1.525-31.245-1.525zm-.62-53.252c-.969-.042-1.731-.784-1.71-1.65.04-.865.845-1.546 1.814-1.525.97.041 1.732.783 1.691 1.65-.02.886-.825 1.566-1.794 1.525zm11.447 30.12l-.99 2.082-2.475-.99 3.465-1.092zm-7.858-24.038l1.279-.248-1.361.763c.02-.186.062-.35.082-.515zm-.742 22.513l2.763-2.763.475 4.247-3.238-1.484zm4.908-12.762l-1.897-6.082s2.33-1.01 5.403.536l-3.506 5.546zm6.497-.268l-.433-4.474c1.608.804 2.577 1.279 3.402 1.65l-2.97 2.824zm7.96-7.979s.763-.247 1.506-.618c0 0 0 2.763-1.877 4.391-1.918 1.65-3.135.619-3.135.619s3.011-.64 3.506-4.392zm-5.506-8.163c-.207 2.556 1.732 6.226 3.918 7.607-.268 2.433-1.526 3.422-3.485 3.938a8.146 8.146 0 01-.495-.289c-.64-.454-9.549-5.566-13.343-.66 0-.577.02-1.299.082-2.103l8.662-4.267-7.61-.577c.763-1.815 2-3.32 4-3.773 3.507-.742 8.27.123 8.27.123zM63.413 17.68c.763.619 2.269 1.155 3.28 2.247-.475-.02-.97-.04-1.424-.02-.66.02-1.3.062-1.938.123.123-1.051 0-1.731.082-2.35zm-2.928-.825l.061 3.485c-1.381.206-2.887.721-4.145 1.092-1.98-.742-3.753-1.463-5.568-1.979a36.21 36.21 0 019.652-2.598z" fill="#003366"/><path d="M22.125 73.262c.598 9.854 6.331 19.668 16.726 26.533 10.394 6.865 23.263 9.36 35.1 7.71-11.157.165-23.056-3.051-33.141-9.73-10.085-6.66-16.478-15.525-18.685-24.513z" fill="#003366"/><path d="M16.701 65.984c-1.98 8.123.186 17.462 6.868 25.585 6.682 8.144 16.437 13.36 26.418 14.988-9.033-2.639-17.839-8.205-24.315-16.101-6.496-7.917-9.424-16.658-8.97-24.472zM67.352 84.848c.186-1.423 1.568-2.103 2.516-1.69 0 0 13.612 6.576 30.11 6.06 0 0-14.56 6.165-31.14-2.123.02 0-1.692-.66-1.486-2.247zM53.555 26.978l-5.444-2.536 1.877 3.052-.784 3.504c.742-1.958 4.351-4.02 4.351-4.02zM97.978 101.795c0-.248.041-.475.144-.701.103-.207.227-.413.392-.557a2.09 2.09 0 01.557-.392c.206-.103.454-.144.701-.144.248 0 .475.041.701.144.207.103.413.227.557.392.165.165.289.35.392.557.103.206.144.453.144.701 0 .247-.041.474-.144.701-.103.206-.227.412-.392.556a2.08 2.08 0 01-.557.392 1.58 1.58 0 01-.7.144c-.248 0-.475-.041-.702-.144-.206-.103-.412-.227-.557-.392a2.092 2.092 0 01-.392-.556 2.029 2.029 0 01-.144-.701zm.33 0c0 .206.041.391.124.577.082.185.185.33.31.474.123.124.288.247.473.309.186.083.372.124.578.124.206 0 .392-.041.577-.124a1.87 1.87 0 00.475-.309 1.28 1.28 0 00.309-.474c.083-.186.124-.371.124-.577 0-.207-.041-.392-.124-.578a1.891 1.891 0 00-.309-.474 1.263 1.263 0 00-.475-.309 1.373 1.373 0 00-.577-.124c-.206 0-.392.041-.578.124-.185.082-.33.185-.474.309a1.27 1.27 0 00-.31.474 1.387 1.387 0 00-.123.578zm.784-1.052h.783c.248 0 .433.062.537.165.123.103.165.268.165.454 0 .185-.042.309-.145.412a.625.625 0 01-.35.165l.536.866h-.392l-.516-.845h-.268v.845h-.37v-2.062h.02zm.37.907H99.897c.041 0 .103-.02.165-.041.041-.021.082-.041.103-.082a.32.32 0 00.041-.165.382.382 0 00-.041-.165c-.021-.042-.062-.062-.103-.083-.041-.02-.103-.02-.165-.041-.062-.021-.124 0-.165 0h-.268v.577z" fill="#003366"/></g><defs><clipPath id="clip0"><path fill="white" transform="translate(16 13)" d="M0 0h88v95H0z"/></clipPath></defs></svg>